<svg width="23" height="22" viewBox="0 0 23 22" fill="none" xmlns="http://www.w3.org/2000/svg">
<path d="M22.3153 6.64754C22.2639 5.50762 22.0798 4.72766 21.8185 4.04628C21.5444 3.34346 21.1804 2.7435 20.585 2.15211C19.9897 1.56072 19.3944 1.18788 18.692 0.9179C18.011 0.652202 17.2315 0.472213 16.0923 0.420788C14.9488 0.369363 14.5847 0.356506 11.6809 0.356506C8.77286 0.356506 8.40882 0.369363 7.26957 0.420788C6.13033 0.472213 5.35084 0.656488 4.66987 0.9179C3.96319 1.19217 3.36359 1.55643 2.77255 2.15211C2.18152 2.74779 1.80891 3.34346 1.53908 4.04628C1.27783 4.72766 1.09367 5.50762 1.04227 6.64754C0.990876 7.79176 0.978027 8.15602 0.978027 11.0616C0.978027 13.9714 0.990876 14.3356 1.04227 15.4756C1.09367 16.6155 1.27783 17.3954 1.53908 18.0768C1.81319 18.7796 2.17723 19.3796 2.77255 19.971C3.36359 20.5667 3.96319 20.9352 4.66558 21.2052C5.34656 21.4709 6.12604 21.6509 7.26529 21.7023C8.40882 21.7537 8.77286 21.7666 11.6767 21.7666C14.5847 21.7666 14.9488 21.7537 16.088 21.7023C17.2273 21.6509 18.0067 21.4666 18.6877 21.2052C19.3901 20.9309 19.9897 20.5667 20.5808 19.971C21.1718 19.3753 21.5444 18.7796 21.8142 18.0768C22.0798 17.3954 22.2596 16.6155 22.311 15.4756C22.3624 14.3314 22.3753 13.9671 22.3753 11.0616C22.3753 8.15602 22.3667 7.78747 22.3153 6.64754ZM20.3923 15.3899C20.3452 16.4355 20.1696 17.0055 20.024 17.3783C19.8312 17.8754 19.5957 18.2354 19.2188 18.6125C18.8419 18.9896 18.4864 19.2168 17.9853 19.4182C17.6084 19.5639 17.0388 19.7396 15.9981 19.7867C14.8717 19.8382 14.5333 19.851 11.6724 19.851C8.81141 19.851 8.47306 19.8382 7.34666 19.7867C6.30164 19.7396 5.73202 19.5639 5.35941 19.4182C4.8626 19.2253 4.50283 18.9896 4.12594 18.6125C3.74905 18.2354 3.52206 17.8797 3.32076 17.3783C3.17514 17.0012 2.99954 16.4312 2.95243 15.3899C2.90104 14.2628 2.88819 13.9242 2.88819 11.0616C2.88819 8.19888 2.90104 7.86033 2.95243 6.73325C2.99954 5.6876 3.17514 5.11764 3.32076 4.74481C3.51349 4.24769 3.74905 3.88772 4.12594 3.5106C4.50283 3.13348 4.85831 2.90635 5.35941 2.70493C5.7363 2.55923 6.30593 2.38352 7.34666 2.33638C8.47306 2.28496 8.81141 2.2721 11.6724 2.2721C14.5333 2.2721 14.8717 2.28496 15.9981 2.33638C17.0431 2.38352 17.6127 2.55923 17.9853 2.70493C18.4821 2.89778 18.8419 3.13348 19.2188 3.5106C19.5957 3.88772 19.8227 4.24341 20.024 4.74481C20.1696 5.12192 20.3452 5.69189 20.3923 6.73325C20.4437 7.86033 20.4565 8.19888 20.4565 11.0616C20.4565 13.9242 20.4394 14.2628 20.3923 15.3899Z" fill="url(#paint0_linear_401_621)"/>
<path d="M11.6726 5.55902C8.63171 5.55902 6.17334 8.02315 6.17334 11.0615C6.17334 14.1042 8.63599 16.5641 11.6726 16.5641C14.7091 16.5641 17.1718 14.0956 17.1718 11.0615C17.1718 8.01887 14.7134 5.55902 11.6726 5.55902ZM11.6726 14.6313C9.70243 14.6313 8.10492 13.0328 8.10492 11.0615C8.10492 9.09023 9.70243 7.49176 11.6726 7.49176C13.6427 7.49176 15.2402 9.09023 15.2402 11.0615C15.2402 13.0328 13.6427 14.6313 11.6726 14.6313Z" fill="url(#paint1_linear_401_621)"/>
<path d="M17.3854 6.63041C18.0951 6.63041 18.6703 6.05481 18.6703 5.34478C18.6703 4.63474 18.0951 4.05914 17.3854 4.05914C16.6758 4.05914 16.1006 4.63474 16.1006 5.34478C16.1006 6.05481 16.6758 6.63041 17.3854 6.63041Z" fill="#BC30A0"/>
<path d="M0.964844 11.0616C0.964844 13.9714 0.977692 14.3356 1.02909 15.4756C1.08048 16.6155 1.26465 17.3954 1.5259 18.0768C1.8 18.7796 2.16405 19.3796 2.75937 19.971C3.35041 20.5624 3.95001 20.9352 4.6524 21.2052C5.33338 21.4709 6.11286 21.6509 7.25211 21.7023C8.39563 21.7537 8.75968 21.7666 11.6635 21.7666C14.5715 21.7666 14.9356 21.7537 16.0748 21.7023C17.2141 21.6509 17.9936 21.4666 18.6745 21.2052C19.3769 20.9309 19.9765 20.5667 20.5676 19.971C21.1586 19.3796 21.5312 18.7796 21.801 18.0768C22.0666 17.3954 22.2465 16.6155 22.2978 15.4756C22.3492 14.3314 22.3621 13.9671 22.3621 11.0616C22.3621 8.15174 22.3492 7.78747 22.2978 6.64754C22.2465 5.50762 22.0623 4.72766 21.801 4.04628C21.5269 3.34346 21.1629 2.7435 20.5676 2.15211C19.9808 1.55643 19.3812 1.18788 18.6788 0.9179C17.9978 0.652202 17.2184 0.472213 16.0791 0.420788C14.9356 0.369363 14.5715 0.356506 11.6678 0.356506C8.75968 0.356506 8.39563 0.369363 7.25639 0.420788C6.11714 0.472213 5.33766 0.656488 4.65668 0.9179C3.95429 1.19217 3.35469 1.55643 2.76365 2.15211C2.17261 2.74779 1.8 3.34346 1.53018 4.04628C1.26465 4.72766 1.08048 5.50762 1.02909 6.64754C0.977692 7.78747 0.964844 8.15174 0.964844 11.0616ZM2.89642 11.0616C2.89642 8.20316 2.90927 7.86033 2.96066 6.73325C3.00778 5.6876 3.18337 5.11764 3.32899 4.74481C3.52172 4.24769 3.75728 3.88772 4.13417 3.5106C4.51107 3.13348 4.86654 2.90635 5.36764 2.70493C5.74453 2.55923 6.31416 2.38352 7.35489 2.33638C8.48129 2.28496 8.81964 2.2721 11.6806 2.2721C14.5416 2.2721 14.8799 2.28496 16.0063 2.33638C17.0513 2.38352 17.6209 2.55923 17.9936 2.70493C18.4904 2.89778 18.8501 3.13348 19.227 3.5106C19.6039 3.88772 19.8309 4.24341 20.0322 4.74481C20.1778 5.12192 20.3534 5.69189 20.4005 6.73325C20.4519 7.86033 20.4648 8.19888 20.4648 11.0616C20.4648 13.9242 20.4519 14.2628 20.4005 15.3899C20.3534 16.4355 20.1778 17.0055 20.0322 17.3783C19.8395 17.8754 19.6039 18.2354 19.227 18.6125C18.8501 18.9896 18.4947 19.2168 17.9936 19.4182C17.6167 19.5639 17.047 19.7396 16.0063 19.7867C14.8799 19.8382 14.5416 19.851 11.6806 19.851C8.81964 19.851 8.48129 19.8382 7.35489 19.7867C6.30987 19.7396 5.74025 19.5639 5.36764 19.4182C4.87083 19.2253 4.51107 18.9896 4.13417 18.6125C3.75728 18.2354 3.53029 17.8797 3.32899 17.3783C3.18337 17.0012 3.00778 16.4312 2.96066 15.3899C2.90499 14.2628 2.89642 13.9199 2.89642 11.0616Z" fill="url(#paint2_linear_401_621)"/>
<defs>
<linearGradient id="paint0_linear_401_621" x1="19.0705" y1="1.99367" x2="3.58171" y2="20.9705" gradientUnits="userSpaceOnUse">
<stop stop-color="#AE3DAE"/>
<stop offset="0.0468721" stop-color="#B23BA6"/>
<stop offset="0.1216" stop-color="#BD368E"/>
<stop offset="0.2148" stop-color="#CE2E69"/>
<stop offset="0.3216" stop-color="#E62335"/>
<stop offset="0.418" stop-color="#FF1800"/>
</linearGradient>
<linearGradient id="paint1_linear_401_621" x1="14.2952" y1="6.64825" x2="8.66843" y2="16.1031" gradientUnits="userSpaceOnUse">
<stop stop-color="#E12F6A"/>
<stop offset="0.1705" stop-color="#EA3751"/>
<stop offset="0.3563" stop-color="#F13D3E"/>
<stop offset="0.5467" stop-color="#F64133"/>
<stop offset="0.7469" stop-color="#F7422F"/>
<stop offset="0.7946" stop-color="#F74C2F"/>
<stop offset="0.8743" stop-color="#F7652F"/>
<stop offset="0.9757" stop-color="#F78F2E"/>
<stop offset="1" stop-color="#F79A2E"/>
</linearGradient>
<linearGradient id="paint2_linear_401_621" x1="16.5211" y1="-0.524904" x2="7.04343" y2="22.0666" gradientUnits="userSpaceOnUse">
<stop offset="0.2341" stop-color="#9E35A5" stop-opacity="0"/>
<stop offset="0.4512" stop-color="#D42F7F" stop-opacity="0.5"/>
<stop offset="0.7524" stop-color="#F7772E"/>
<stop offset="0.9624" stop-color="#FEF780"/>
</linearGradient>
</defs>
</svg>
