<svg width="23" height="23" viewBox="0 0 23 23" fill="none" xmlns="http://www.w3.org/2000/svg">
<circle cx="11.5702" cy="11.4937" r="9.74504" fill="white"/>
<path d="M11.5702 21.2387C16.9523 21.2387 21.3153 16.8757 21.3153 11.4937C21.3153 6.11166 16.9523 1.74866 11.5702 1.74866C6.1882 1.74866 1.8252 6.11166 1.8252 11.4937C1.8252 15.4475 4.1798 18.8513 7.56327 20.3795C7.56781 20.274 7.57292 20.1774 7.5773 20.0945C7.58327 19.9815 7.58789 19.894 7.58789 19.8449C7.58789 19.5521 7.78701 18.0997 7.78701 18.0997L9.00514 13.0983C8.81773 12.7938 8.67718 12.1496 8.67718 11.6577C8.67718 9.38539 9.94216 8.89345 10.7152 8.89345C11.6991 8.89345 11.9216 9.95931 11.9216 10.7441C11.9216 11.1592 11.7063 11.8089 11.4847 12.4775C11.2499 13.1862 11.008 13.916 11.008 14.4102C11.008 15.3706 11.9568 15.8508 12.6127 15.8508C14.3462 15.8508 15.9391 13.6723 15.9391 11.4937C15.9391 9.31511 14.9201 6.67973 11.5819 6.67973C8.2438 6.67973 6.74457 9.22141 6.74457 11.1657C6.74457 12.4776 7.23651 13.438 7.48247 13.602C7.55275 13.6645 7.67222 13.8573 7.58789 14.1291C7.50356 14.4008 7.34973 15.0075 7.28336 15.2769C7.27555 15.3394 7.20137 15.4456 6.96711 15.3706C6.67429 15.2769 4.81196 14.1056 4.81196 11.1657C4.81196 8.22582 7.11938 4.80569 11.5819 4.80569C16.0445 4.80569 18.3285 7.80416 18.3285 11.4937C18.3285 15.1832 15.3418 17.5375 13.0695 17.5375C11.2516 17.5375 10.5395 16.7254 10.4107 16.3194L9.71962 18.9547C9.55645 19.3919 9.25205 20.1777 8.87669 20.8617C9.73215 21.1072 10.6358 21.2387 11.5702 21.2387Z" fill="#BB0F23"/>
</svg>
